<?xml version="1.0" encoding="iso-8859-1"?>
<!-- Uploaded to: SVG Repo, www.svgrepo.com, Generator: SVG Repo Mixer Tools -->
<svg version="1.1" id="Layer_1" xmlns="http://www.w3.org/2000/svg" xmlns:xlink="http://www.w3.org/1999/xlink" 
	 viewBox="0 0 512.005 512.005" xml:space="preserve">
<rect x="0.03" y="0.016" style="fill:#A9DDF3;" width="511.975" height="383.981"/>
<rect x="0.03" y="208.008" style="fill:#BAE4F5;" width="511.975" height="175.987"/>
<rect x="0.03" y="351.999" style="fill:#CBEBF8;" width="511.975" height="31.998"/>
<polygon style="fill:#8E999F;" points="304.016,304.688 288.016,304.688 288.016,335.999 120.024,335.999 120.024,312.001 
	176.022,312.001 176.022,240.005 304.016,240.005 "/>
<polygon style="fill:#BDCCD4;" points="175.924,239.775 175.924,312.017 120.433,312.017 120.433,336.098 176.022,336.098 
	200.02,336.098 224.085,336.098 224.085,239.775 "/>
<rect x="0.03" y="383.964" style="fill:#00A99D;" width="511.975" height="128.025"/>
<rect x="0.03" y="383.964" style="fill:#007F76;" width="511.975" height="72.028"/>
<rect x="0.03" y="383.964" style="fill:#095C57;" width="511.975" height="24.031"/>
<path style="fill:#ED1E79;" d="M312.015,407.996c57.434,0,103.995-46.56,103.995-103.995l0,0H288.016V336H104.025l0,0
	c0,39.762,32.233,71.997,71.997,71.997"/>
<path style="fill:#B2165B;" d="M368.013,303.641c0,57.584-46.56,104.698-103.995,104.698h47.998
	c57.434,0,103.995-47.114,103.995-104.698H368.013z"/>
<rect x="344.484" y="319.344" style="fill:#FFFFFF;" width="31.41" height="15.705"/>
<polygon points="151.843,231.4 151.843,247.104 167.548,247.104 167.548,303.641 120.433,303.641 120.433,319.346 183.252,319.346 
	183.252,247.104 296.327,247.104 296.327,287.937 312.031,287.937 312.031,247.104 327.736,247.104 327.736,231.4 "/>
<g>
	<rect x="208.376" y="264.901" style="fill:#FFFFFF;" width="15.705" height="15.705"/>
	<rect x="231.41" y="264.901" style="fill:#FFFFFF;" width="15.705" height="15.705"/>
	<rect x="255.49" y="264.901" style="fill:#FFFFFF;" width="16.752" height="15.705"/>
</g>
<rect x="192.671" y="192.659" width="15.705" height="31.41"/>
<path d="M512.005,375.883H397.632c16.359-19.453,26.23-44.534,26.23-71.882v-7.852H280.163v31.999H96.173V336
	c0,14.522,3.916,28.139,10.719,39.884H0.03v15.705h118.749c14.52,14.947,34.808,24.261,57.243,24.261l-0.098-14.838
	c-32.712,0-59.684-25.479-63.568-57.159h183.513v-8.801h40.244v-15.705h-40.244v-7.492H407.84c-0.205,2.528-0.533,5.022-0.932,7.492
	h-23.682v15.705h19.768c-12.944,37.82-48.812,65.96-90.963,65.96l-0.017,14.838c26.232,0,50.381-9.082,69.476-24.261h130.514
	L512.005,375.883L512.005,375.883z"/>
<g>
	<path style="fill:#FFFFFF;" d="M207.872,184.007h-15.705v-15.999c0-4.493-3.655-8.147-8.147-8.147h-71.997
		c-13.152,0-23.851-10.7-23.851-23.851c0-4.493-3.655-8.147-8.147-8.147H0.03v-15.705h79.996c13.152,0,23.851,10.7,23.851,23.851
		c0,4.493,3.655,8.147,8.147,8.147h71.997c13.151,0,23.851,10.7,23.851,23.851V184.007z"/>
	<rect x="136.134" y="112.041" style="fill:#FFFFFF;" width="31.41" height="15.705"/>
	<rect x="56.563" y="176.954" style="fill:#FFFFFF;" width="95.275" height="15.705"/>
	<rect x="24.107" y="144.498" style="fill:#FFFFFF;" width="48.161" height="15.705"/>
	<rect x="112.053" y="401.009" style="fill:#FFFFFF;" width="279.545" height="15.705"/>
	<rect x="87.973" y="432.418" style="fill:#FFFFFF;" width="104.698" height="15.705"/>
	<rect x="208.376" y="432.418" style="fill:#FFFFFF;" width="38.738" height="15.705"/>
	<rect x="31.436" y="463.828" style="fill:#FFFFFF;" width="161.235" height="15.705"/>
	<rect x="0.03" y="463.828" style="fill:#FFFFFF;" width="15.705" height="15.705"/>
	<rect x="0.03" y="496.284" style="fill:#FFFFFF;" width="56.537" height="15.705"/>
	<rect x="0.03" y="401.009" style="fill:#FFFFFF;" width="79.571" height="15.705"/>
	<rect x="56.563" y="432.418" style="fill:#FFFFFF;" width="15.705" height="15.705"/>
</g>
<polygon points="344.014,163.113 322.461,141.562 333.567,130.457 344.014,140.904 354.459,130.457 365.566,141.562 "/>
<polygon points="400.01,203.111 378.458,181.56 389.565,170.455 400.01,180.902 410.457,170.455 421.563,181.56 "/>
<polygon points="440.008,91.117 418.456,69.565 429.563,58.461 440.008,68.908 450.455,58.461 461.561,69.565 "/>
<g>
	
		<rect x="8.172" y="72.06" transform="matrix(-0.0032 -1 1 -0.0032 -71.983 104.3656)" style="fill:#FFFFFF;" width="15.705" height="31.999"/>
	<rect x="48.187" y="79.585" style="fill:#FFFFFF;" width="15.705" height="15.705"/>
</g>
</svg>